<svg width="109" height="108" viewBox="0 0 109 108" fill="none" xmlns="http://www.w3.org/2000/svg">
<rect x="0.5" width="108" height="108" rx="24" fill="#CAF3E5"/>
<path d="M54.5 20.0894C38.066 20.0894 24.6958 33.4596 24.6958 49.8937C24.6958 51.7149 24.6958 65.8035 24.6958 66.0542C24.6958 69.341 27.3698 72.015 30.6566 72.015H32.9854C33.8056 74.3276 36.0141 75.9889 38.6044 75.9889C41.8913 75.9889 44.5653 73.3149 44.5653 70.0281V53.8675C44.5653 50.5807 41.8913 47.9067 38.6044 47.9067C36.0141 47.9067 33.8056 49.5681 32.9854 51.8806H30.6566C29.96 51.8806 29.2916 52.0018 28.6697 52.2224V49.8937C28.6697 35.6508 40.2572 24.0633 54.5 24.0633C68.7429 24.0633 80.3304 35.6508 80.3304 49.8937V52.2224C79.7085 52.0018 79.04 51.8806 78.3434 51.8806H76.0147C75.1945 49.5681 72.9859 47.9067 70.3956 47.9067C67.1088 47.9067 64.4348 50.5807 64.4348 53.8675V70.0281C64.4348 73.3149 67.1088 75.9889 70.3956 75.9889C70.9971 75.9889 71.5779 75.8986 72.1257 75.7321C71.3825 78.1776 69.107 79.9628 66.4217 79.9628H60.1191C59.2989 77.6503 57.0904 75.9889 54.5 75.9889C51.2132 75.9889 48.5392 78.6629 48.5392 81.9498C48.5392 85.2366 51.2132 87.9106 54.5 87.9106C57.0904 87.9106 59.2989 86.2493 60.1191 83.9367H66.4217C71.8997 83.9367 76.3565 79.48 76.3565 74.002V72.015H78.3434C81.6302 72.015 84.3043 69.341 84.3043 66.0542C84.3043 65.8073 84.3043 51.7134 84.3043 49.8937C84.3043 33.4596 70.9341 20.0894 54.5 20.0894ZM36.6175 53.8675C36.6175 52.7719 37.5088 51.8806 38.6044 51.8806C39.7 51.8806 40.5914 52.7719 40.5914 53.8675V70.0281C40.5914 71.1237 39.7 72.015 38.6044 72.015C37.5088 72.015 36.6175 71.1237 36.6175 70.0281V53.8675ZM30.6566 55.8545H32.6436V68.0411H30.6566C29.561 68.0411 28.6697 67.1498 28.6697 66.0542V57.8414C28.6697 56.7458 29.561 55.8545 30.6566 55.8545ZM54.5 83.9367C53.4044 83.9367 52.5131 83.0454 52.5131 81.9498C52.5131 80.8542 53.4044 79.9628 54.5 79.9628C55.5956 79.9628 56.487 80.8542 56.487 81.9498C56.487 83.0454 55.5956 83.9367 54.5 83.9367ZM72.3826 70.0281C72.3826 71.1237 71.4912 72.015 70.3956 72.015C69.3 72.015 68.4087 71.1237 68.4087 70.0281V53.8675C68.4087 52.7719 69.3 51.8806 70.3956 51.8806C71.4912 51.8806 72.3826 52.7719 72.3826 53.8675V70.0281ZM80.3304 66.0542C80.3304 67.1498 79.439 68.0411 78.3434 68.0411H76.3565V55.8545H78.3434C79.439 55.8545 80.3304 56.7458 80.3304 57.8414V66.0542Z" fill="#70908B"/>
</svg>
