<svg width="109" height="108" viewBox="0 0 109 108" fill="none" xmlns="http://www.w3.org/2000/svg">
<rect x="0.5" width="108" height="108" rx="24" fill="#EEEBFF"/>
<g clip-path="url(#clip0_2001_90)">
<path d="M43.4168 72.0495C43.3995 71.9645 43.3743 71.8808 43.3411 71.7998C43.3079 71.7201 43.2667 71.6431 43.2189 71.5714C43.1711 71.4983 43.1153 71.4306 43.0542 71.3695C42.9931 71.3084 42.9254 71.2526 42.8523 71.2048C42.7806 71.157 42.7036 71.1158 42.6226 71.0826C42.5429 71.0494 42.4592 71.0229 42.3742 71.0069C42.2029 70.9724 42.0263 70.9724 41.8563 71.0069C41.7713 71.0229 41.6876 71.0494 41.6066 71.0826C41.5269 71.1158 41.4498 71.157 41.3781 71.2048C41.3051 71.2526 41.2373 71.3084 41.1762 71.3695C41.1152 71.4306 41.0594 71.4983 41.0116 71.5714C40.9624 71.6431 40.9226 71.7201 40.8894 71.7998C40.8562 71.8808 40.8296 71.9645 40.8137 72.0495C40.7964 72.1345 40.7871 72.2222 40.7871 72.3085C40.7871 72.3948 40.7964 72.4825 40.8137 72.5675C40.8296 72.6525 40.8562 72.7361 40.8894 72.8158C40.9226 72.8968 40.9624 72.9739 41.0116 73.0456C41.0594 73.1186 41.1152 73.1864 41.1762 73.2475C41.2373 73.3086 41.3051 73.3643 41.3781 73.4122C41.4498 73.4601 41.5269 73.5013 41.6066 73.5345C41.6876 73.5677 41.7713 73.5942 41.8563 73.6102C41.9413 73.6274 42.0289 73.6367 42.1152 73.6367C42.2016 73.6367 42.2892 73.6274 42.3742 73.6102C42.4592 73.5942 42.5429 73.5677 42.6226 73.5345C42.7036 73.5013 42.7806 73.46 42.8523 73.4122C42.9254 73.3643 42.9931 73.3086 43.0542 73.2475C43.1153 73.1864 43.1711 73.1186 43.2189 73.0456C43.2667 72.9739 43.3079 72.8968 43.3411 72.8158C43.3743 72.7361 43.3995 72.6525 43.4168 72.5675C43.4341 72.4825 43.4434 72.3948 43.4434 72.3085C43.4434 72.2222 43.4341 72.1345 43.4168 72.0495Z" fill="#70908B"/>
<path d="M81.5928 72.4585C81.5876 72.4452 81.5823 72.4321 81.5768 72.4191C80.3543 69.5587 77.4875 68.5015 74.0946 69.6603L64.8418 72.2191C64.3069 70.599 62.9725 69.2204 61.0858 68.5202C61.0741 68.516 61.0624 68.5117 61.0506 68.5078L50.8797 65.0557C50.0331 63.9615 47.3814 61.1615 42.4165 61.1615C38.9467 61.1615 35.8773 63.5418 34.1213 66.1363H21.8281C21.0946 66.1363 20.5 66.7309 20.5 67.4644V84.209C20.5 84.9425 21.0946 85.5371 21.8281 85.5371H29.7248C30.4583 85.5371 31.0529 84.9425 31.0529 84.209V83.0623H34.7561C35.4896 83.0623 36.0842 82.4677 36.0842 81.7341V81.3519C38.243 81.5402 38.953 81.9497 40.9356 83.0929C42.4603 83.9722 44.7647 85.301 48.9146 87.1668C48.9338 87.1755 48.9534 87.1837 48.9729 87.1914C49.7694 87.5047 51.3263 87.9969 53.2459 87.9969C54.5819 87.9969 56.094 87.7582 57.6461 87.0547L78.098 79.732C78.1344 79.719 78.1702 79.7044 78.2053 79.6882C80.1599 78.7889 83.0726 76.2544 81.5928 72.4585ZM28.3966 82.8807H23.1562V68.7924H28.3966V82.8807ZM33.428 80.4059H31.0529V68.7924H33.428V80.4059ZM77.144 77.252L56.7012 84.5714C56.6833 84.5778 56.659 84.5874 56.6413 84.5945C56.6234 84.6018 56.6055 84.6095 56.5878 84.6176C53.7407 85.9261 51.0344 85.1428 49.9737 84.7304C45.9652 82.9267 43.8257 81.693 42.2625 80.7916C40.0892 79.5384 39.042 78.9343 36.0842 78.6901V67.9931C37.3431 65.9297 39.7845 63.8176 42.4166 63.8176C46.9304 63.8176 48.843 66.7534 48.9182 66.8719C49.0803 67.1357 49.3296 67.3345 49.6227 67.434L60.178 71.0164C61.8638 71.6492 62.7547 73.0928 62.3452 74.5325C62.1562 75.1974 61.7196 75.7488 61.1158 76.0852C60.5172 76.4187 59.8253 76.5012 59.1657 76.3187L47.2666 72.5479C46.567 72.3262 45.8208 72.7135 45.5993 73.4128C45.3776 74.112 45.7649 74.8584 46.4642 75.0801L58.384 78.8574C58.3966 78.8614 58.4092 78.8653 58.422 78.8688C58.8978 79.0042 59.3823 79.0711 59.8639 79.0711C60.7455 79.0711 61.6174 78.8465 62.4087 78.4056C63.6323 77.7239 64.5171 76.6064 64.9002 75.259C64.9307 75.1514 64.9578 75.0438 64.9813 74.9363L74.9533 72.1738C76.3935 71.6818 78.2841 71.5045 79.1258 73.4432C79.9971 75.7192 77.7326 76.9712 77.144 77.252Z" fill="#70908B"/>
<path d="M68.1877 37.4706C68.1704 37.3856 68.1452 37.3019 68.1106 37.2209C68.0774 37.1412 68.0376 37.0642 67.9884 36.9925C67.9406 36.9194 67.8848 36.8517 67.8238 36.7906C67.7627 36.7295 67.6949 36.6737 67.6219 36.6259C67.5502 36.5781 67.4731 36.5369 67.3934 36.5037C67.3124 36.4705 67.2287 36.4439 67.1451 36.428C66.9737 36.3935 66.7971 36.3935 66.6258 36.428C66.5408 36.4439 66.4571 36.4705 66.3774 36.5037C66.2964 36.5369 66.2194 36.5781 66.1477 36.6259C66.0746 36.6737 66.0069 36.7295 65.9458 36.7906C65.8847 36.8517 65.8289 36.9194 65.7811 36.9925C65.7333 37.0642 65.6921 37.1412 65.6589 37.2209C65.6257 37.3019 65.5991 37.3856 65.5832 37.4706C65.5659 37.5556 65.5566 37.6432 65.5566 37.7296C65.5566 37.8159 65.5659 37.9035 65.5832 37.9885C65.5991 38.0735 65.6257 38.1572 65.6589 38.2369C65.6921 38.3179 65.7333 38.395 65.7811 38.4667C65.8289 38.5397 65.8847 38.6075 65.9458 38.6685C66.0069 38.7296 66.0746 38.7854 66.1477 38.8332C66.2194 38.881 66.2964 38.9222 66.3774 38.9554C66.4571 38.9886 66.5408 39.0139 66.6258 39.0311C66.7108 39.0484 66.7984 39.0577 66.8848 39.0577C66.9711 39.0577 67.0587 39.0484 67.1451 39.0311C67.2287 39.0139 67.3124 38.9886 67.3934 38.9554C67.4731 38.9222 67.5502 38.881 67.6219 38.8332C67.6949 38.7854 67.7627 38.7296 67.8238 38.6685C67.8848 38.6075 67.9406 38.5397 67.9884 38.4667C68.0376 38.395 68.0774 38.3179 68.1106 38.2369C68.1452 38.1572 68.1704 38.0735 68.1877 37.9885C68.2049 37.9035 68.2129 37.8159 68.2129 37.7296C68.2129 37.6432 68.2049 37.5556 68.1877 37.4706Z" fill="#70908B"/>
<path d="M87.1719 24.5011H79.2752C78.5417 24.5011 77.9471 25.0957 77.9471 25.8292V26.9759H74.2439C73.5104 26.9759 72.9158 27.5705 72.9158 28.3041V28.6863C70.757 28.4978 70.047 28.0885 68.0645 26.9453C66.5398 26.066 64.2354 24.7373 60.0854 22.8714C60.0662 22.8626 60.0468 22.8545 60.027 22.8468C58.6762 22.3153 55.1358 21.2695 51.3545 22.9832L46.0101 24.8968L41.5052 20.392C40.9866 19.8734 40.1456 19.8734 39.627 20.392L24.8373 35.1816C24.3589 35.6601 24.2671 36.4898 24.8373 37.06L50.1097 62.3325C50.5142 62.737 51.4611 62.8594 51.9881 62.3325L65.4905 48.8302C65.8415 48.8605 66.2058 48.8769 66.5834 48.8769C70.0533 48.8769 73.1226 46.4966 74.8785 43.9022H87.1719C87.9054 43.9022 88.5 43.3076 88.5 42.5741V25.8292C88.5 25.0957 87.9054 24.5011 87.1719 24.5011ZM40.566 23.2094L43.593 26.2364C42.6932 26.7929 41.6529 27.0907 40.566 27.0907C39.4789 27.0907 38.4387 26.7931 37.5389 26.2364L40.566 23.2094ZM30.6818 39.1479L27.6547 36.1207L30.6818 33.0937C31.2383 33.9935 31.5361 35.0338 31.5361 36.1207C31.5361 37.2077 31.2384 38.248 30.6818 39.1479ZM51.049 59.515L48.0225 56.4885C49.8703 55.3481 52.2274 55.3481 54.0754 56.4885L51.049 59.515ZM55.989 54.5752C53.0541 52.4462 49.0439 52.4462 46.109 54.5752L32.5952 41.0612C33.6324 39.6348 34.1923 37.9214 34.1923 36.1207C34.1923 34.3199 33.6325 32.6067 32.5952 31.1803L35.6256 28.15C37.052 29.1871 38.7653 29.7471 40.5661 29.7471C42.3669 29.7471 44.0802 29.1871 45.5066 28.15L48.3792 31.0226C47.7594 31.1141 47.1549 31.3184 46.5913 31.6325C45.6393 32.1629 44.8923 32.9573 44.4272 33.9183C42.9291 34.1958 41.5421 34.921 40.4541 36.0089C37.5024 38.9608 37.5024 43.7637 40.4543 46.7156C41.9301 48.1914 43.8688 48.9294 45.8076 48.9294C47.7462 48.9294 49.685 48.1915 51.161 46.7156C52.1212 45.7554 52.7939 44.5752 53.1308 43.289L57.6151 44.8109C57.1103 47.1495 57.6273 49.6097 59.022 51.5421L55.989 54.5752ZM47.9142 41.518C47.9259 41.5222 47.9376 41.5265 47.9494 41.5305L50.6051 42.4319C50.4046 43.337 49.9508 44.1692 49.2827 44.8374C47.3665 46.7533 44.2486 46.7536 42.3326 44.8374C40.4164 42.9213 40.4164 39.8035 42.3326 37.8873C42.7948 37.4248 43.3403 37.0634 43.9346 36.8184C44.1798 38.8587 45.6488 40.6773 47.9142 41.518ZM60.9357 49.6283C60.423 48.7929 60.133 47.8395 60.0872 46.8663C60.7233 47.3263 61.5008 47.7769 62.4294 48.1346L60.9357 49.6283ZM72.9156 42.0446C71.6568 44.1082 69.2155 46.2203 66.5834 46.2203C66.0909 46.2203 65.6294 46.1853 65.1979 46.1229C65.1962 46.1226 65.1945 46.1223 65.1927 46.1221C62.3245 45.7054 60.7816 44.0753 60.2731 43.4298C60.246 43.39 60.1306 43.239 60.1134 43.2139C59.9587 42.9373 59.7051 42.715 59.3815 42.6052L48.8219 39.0212C47.1367 38.3888 46.246 36.9458 46.6542 35.5066C46.6545 35.5057 46.6548 35.5048 46.655 35.5038C46.6554 35.5028 46.6557 35.5016 46.656 35.5005C46.8457 34.8378 47.2816 34.2881 47.8841 33.9524C48.4825 33.619 49.1743 33.5362 49.8342 33.7191L61.7332 37.4898C62.4326 37.7117 63.179 37.3242 63.4006 36.6249C63.6221 35.9256 63.2349 35.1792 62.5357 34.9576L53.0721 31.9587L52.9895 31.8761C52.9887 31.8753 52.9879 31.8743 52.987 31.8735L48.0875 26.9741L52.2988 25.4661C52.313 25.4609 52.3305 25.4544 52.3446 25.4487C52.3482 25.4473 52.3551 25.4446 52.3585 25.4432C52.3766 25.4358 52.3944 25.4281 52.4121 25.42C55.259 24.1116 57.9652 24.8948 59.026 25.3073C63.0347 27.111 65.1743 28.3447 66.7375 29.2461C68.9108 30.4995 69.958 31.1034 72.9156 31.3476V42.0446ZM77.9471 41.2457H75.572V29.6322H77.9471V41.2457ZM85.8437 41.2457H80.6034V27.1574H85.8437V41.2457Z" fill="#70908B"/>
</g>
<defs>
<clipPath id="clip0_2001_90">
<rect width="68" height="68" fill="white" transform="translate(20.5 20)"/>
</clipPath>
</defs>
</svg>
