<svg width="108" height="108" viewBox="0 0 108 108" fill="none" xmlns="http://www.w3.org/2000/svg">
<rect x="0.15564" y="0.155701" width="107.689" height="107.689" rx="24" fill="#FFF4E7"/>
<path d="M87.1585 34.7946L60.7961 20.3188C60.4 20.1013 59.9197 20.1013 59.5236 20.3188L49.5871 25.7748C49.3774 25.83 49.1817 25.9354 49.0196 26.0867L33.1617 34.7946C32.7388 35.0265 32.4759 35.4706 32.4759 35.9535V53.4613C29.8008 54.2979 27.3494 55.7733 25.311 57.8122C19.9981 63.1246 18.6435 71.2273 21.9403 77.9744C22.2605 78.6303 23.0522 78.9024 23.7081 78.5817C24.3644 78.261 24.6361 77.4694 24.3159 76.8135C21.5148 71.0807 22.6659 64.1962 27.1805 59.6816C30.0038 56.8584 33.7572 55.3034 37.7496 55.3034C41.7421 55.3034 45.4955 56.8584 48.3188 59.6816C51.1415 62.5044 52.6965 66.2578 52.6965 70.2503C52.6965 74.2427 51.1415 77.9961 48.3182 80.8194C43.8037 85.334 36.9192 86.4851 31.1864 83.684C30.5305 83.3633 29.7389 83.6355 29.4187 84.2913C29.098 84.9477 29.3696 85.7394 30.026 86.0596C32.4837 87.2608 35.1205 87.8443 37.7383 87.8443C42.305 87.8438 46.8108 86.0663 50.1882 82.6889C51.737 81.1401 52.9609 79.3533 53.8269 77.411L59.5236 80.539C59.7219 80.648 59.9409 80.7022 60.1599 80.7022C60.3788 80.7022 60.5983 80.648 60.7961 80.539L87.1585 66.0636C87.5815 65.8312 87.8443 65.3871 87.8443 64.9048V55.7171C87.8443 54.9868 87.2525 54.395 86.5223 54.395C85.792 54.395 85.2002 54.9868 85.2002 55.7171V64.1224L61.486 77.144V51.2092L69.3124 46.9115V53.7242C69.3124 54.1921 69.5593 54.6248 69.9616 54.8624C70.1692 54.9848 70.4016 55.0462 70.6345 55.0462C70.8534 55.0462 71.0729 54.992 71.2717 54.8825L76.9209 51.7731C77.3433 51.5407 77.6052 51.0971 77.6052 50.6153V42.3577L85.2002 38.1876V45.1412C85.2002 45.8714 85.792 46.4633 86.5223 46.4633C87.2525 46.4633 87.8443 45.8714 87.8443 45.1412V35.9535C87.8443 35.4712 87.5815 35.0265 87.1585 34.7946ZM60.1599 22.9856L83.7754 35.9535L76.326 40.0441L52.7104 27.0762L60.1599 22.9856ZM60.1599 48.9209L36.5443 35.9535L44.2669 31.7126L67.883 44.68L60.1599 48.9209ZM70.6293 43.1721L47.0138 30.2047L49.9636 28.5846L73.5796 41.5521L70.6293 43.1721ZM50.1882 57.8122C46.8655 54.4895 42.4481 52.6598 37.7496 52.6598C36.8609 52.6598 35.9829 52.7254 35.12 52.854V38.1876L58.8425 51.2138V77.1487L54.725 74.8878C55.1304 73.3953 55.3401 71.8388 55.3401 70.2503C55.3401 65.5518 53.5104 61.1343 50.1882 57.8122ZM74.9616 49.834L71.9565 51.4881V45.4598L74.9616 43.8099V49.834Z" fill="#70908B"/>
<path d="M86.5223 49.1006C86.1747 49.1006 85.8334 49.2421 85.5876 49.4879C85.3418 49.7337 85.2003 50.0746 85.2003 50.4226C85.2003 50.7702 85.3418 51.111 85.5876 51.3568C85.8334 51.6032 86.1747 51.7442 86.5223 51.7442C86.8699 51.7442 87.2112 51.6032 87.457 51.3568C87.7028 51.111 87.8443 50.7702 87.8443 50.4226C87.8443 50.0746 87.7028 49.7337 87.457 49.4879C87.2112 49.2421 86.8699 49.1006 86.5223 49.1006Z" fill="#70908B"/>
<path d="M33.3043 71.5723C33.6425 71.5723 33.9813 71.4432 34.239 71.1855C34.7554 70.6691 34.7554 69.832 34.239 69.3155L33.3234 68.3994H41.1369C43.0321 68.3994 44.5742 69.9415 44.5742 71.8367C44.5742 73.732 43.0321 75.274 41.1369 75.274H36.5071C35.7769 75.274 35.1851 75.8659 35.1851 76.5961C35.1851 77.3258 35.7769 77.9176 36.5071 77.9176H41.1369C44.49 77.9176 47.2183 75.1899 47.2183 71.8367C47.2183 68.4836 44.49 65.7558 41.1369 65.7558H33.3234L34.239 64.8397C34.7554 64.3233 34.7554 63.4861 34.239 62.9697C33.7231 62.4538 32.886 62.4538 32.3695 62.9697L29.1966 66.1426C28.6807 66.6591 28.6807 67.4962 29.1966 68.0126L32.3695 71.185C32.6277 71.4432 32.966 71.5723 33.3043 71.5723Z" fill="#70908B"/>
<path d="M26.2468 83.0781C25.8708 83.0781 25.4974 82.918 25.2366 82.6076L25.2341 82.6045C24.7641 82.0457 24.8364 81.2122 25.3952 80.7423C25.9539 80.2718 26.788 80.3441 27.2579 80.9029C27.7273 81.4622 27.6566 82.2972 27.0978 82.7672C26.8494 82.9758 26.5473 83.0781 26.2468 83.0781Z" fill="#70908B"/>
</svg>
