<svg width="27" height="28" viewBox="0 0 27 28" fill="none" xmlns="http://www.w3.org/2000/svg">
<path fill-rule="evenodd" clip-rule="evenodd" d="M20.8086 19.1847L26.8075 25.1908C27.0754 25.4888 27.0622 25.9449 26.7775 26.2269L25.7277 27.2779C25.5869 27.4201 25.3952 27.5 25.1953 27.5C24.9953 27.5 24.8037 27.4201 24.6629 27.2779L18.664 21.2718C18.4981 21.1056 18.3475 20.9246 18.2141 20.7313L17.0893 19.2297C15.2282 20.7177 12.9171 21.5278 10.5355 21.5271C5.62785 21.5441 1.36328 18.1547 0.266542 13.3653C-0.830192 8.57597 1.53362 3.66496 5.95852 1.53975C10.3834 -0.585459 15.6885 0.642317 18.733 4.4962C21.7774 8.35008 21.7488 13.8015 18.664 17.6231L20.1637 18.6592C20.3979 18.8092 20.6143 18.9856 20.8086 19.1847ZM3.03678 11.0164C3.03678 15.1627 6.39402 18.524 10.5354 18.524C12.5241 18.524 14.4314 17.733 15.8377 16.3251C17.2439 14.9171 18.034 13.0075 18.034 11.0164C18.034 6.87003 14.6767 3.50875 10.5354 3.50875C6.39402 3.50875 3.03678 6.87003 3.03678 11.0164Z" fill="#07484A"/>
</svg>
